:FULLY-SPECIFIED
:FORCE-ALL-JOINTS-BE-3DOF
:DEGREES
340
root 8.17334 16.0429 -20.5092 10.7458 24.362 4.46109
lfemur -11.6703 19.2828 -10.7995
ltibia 43.521 -0 0
lfoot 1.98968 21.9607 -0.0575488
ltoes -26.9764 0 0
rfemur -46.4577 -12.9094 8.09015
rtibia 54.9294 -0 0
rfoot 2.35538 -18.0641 -0.508108
rtoes 9.59307 -0 0
lowerback 0.0355561 -1.75227 -1.92492
upperback 1.94752 -2.30567 -0.125776
thorax 2.05374 -1.18364 0.890306
lowerneck -5.36037 -8.754 -0.420097
upperneck -2.54378 -11.6359 6.45401
head 0.544748 -5.77494 1.82256
lclavicle -2.48481e-17 1.13307e-14 0
lhumerus -47.7305 -35.6908 109.416
lradius 58.031 -0 0
lwrist 18.9109 0 0
lhand 5.96944 12.2577 0.0618628
lfingers 7.12502 -0 0
lthumb 31.2848 39.5161 0.0320322
rclavicle -2.48481e-17 1.13307e-14 0
rhumerus -21.1598 19.3789 -71.4494
rradius 83.8641 -0 0
rwrist 2.77305 0 0
rhand 14.5914 -9.5871 1.95007
rfingers 7.12502 -0 0
rthumb 39.3565 -33.2826 2.28545
341
root 8.10339 16.0655 -20.3529 10.4379 22.8569 3.95788
lfemur -11.9483 19.1371 -10.2726
ltibia 45.0453 -0 0
lfoot 2.06488 20.3507 -0.0725361
ltoes -24.6759 0 0
rfemur -45.7781 -12.9787 9.25003
rtibia 54.4404 -0 0
rfoot 1.35486 -16.9941 -0.640334
rtoes 9.56918 -0 0
lowerback 0.156649 -1.64111 -1.79415
upperback 1.94915 -2.16244 -0.0238308
thorax 1.98349 -1.11107 0.924209
lowerneck -5.48225 -8.50736 -0.387604
upperneck -2.3424 -11.3201 6.31481
head 0.61035 -5.61227 1.77879
lclavicle -2.48481e-17 1.13307e-14 0
lhumerus -47.5051 -35.0105 109.024
lradius 57.9926 -0 0
lwrist 18.7437 0 0
lhand 5.332 12.0521 0.0779137
lfingers 7.12502 -0 0
lthumb 30.6749 39.4047 0.0403424
rclavicle -2.48481e-17 1.13307e-14 0
rhumerus -22.3356 18.8023 -72.7222
rradius 83.4182 -0 0
rwrist 2.76646 0 0
rhand 11.9042 -11.0769 2.46429
rfingers 7.12502 -0 0
rthumb 36.7933 -35.1091 2.88872
342
root 8.03343 16.0881 -20.1966 10.1475 21.3493 3.4687
lfemur -12.2274 18.9939 -9.74537
ltibia 46.5696 -0 0
lfoot 2.14048 18.7406 -0.0854045
ltoes -22.3753 0 0
rfemur -45.0999 -13.0613 10.4094
rtibia 53.9514 -0 0
rfoot 0.352023 -15.9219 -0.753833
rtoes 9.54528 -0 0
lowerback 0.27799 -1.53023 -1.66315
upperback 1.95104 -2.01922 0.0781093
thorax 1.91328 -1.03845 0.958023
lowerneck -5.60391 -8.26065 -0.355661
upperneck -2.14201 -11.0039 6.1769
head 0.675809 -5.44956 1.73521
lclavicle -2.48481e-17 1.13307e-14 0
lhumerus -47.2872 -34.3291 108.639
lradius 57.9541 -0 0
lwrist 18.5765 0 0
lhand 4.6945 11.8463 0.0916757
lfingers 7.12502 -0 0
lthumb 30.0651 39.2933 0.0474672
rclavicle -2.48481e-17 1.13307e-14 0
rhumerus -23.4936 18.2013 -73.9779
rradius 82.9724 -0 0
rwrist 2.75987 0 0
rhand 9.20358 -12.5897 2.90798
rfingers 7.12502 -0 0
rthumb 34.2107 -36.9619 3.40946
343
root 7.96347 16.1107 -20.0403 9.87371 19.8396 2.99246
lfemur -12.5077 18.8532 -9.21786
ltibia 48.094 -0 0
lfoot 2.21641 17.1306 -0.0961438
ltoes -20.0748 0 0
rfemur -44.4233 -13.1573 11.568
rtibia 53.4624 -0 0
rfoot -0.652788 -14.8478 -0.848532
rtoes 9.52139 -0 0
lowerback 0.399578 -1.41962 -1.53192
upperback 1.95318 -1.87601 0.180045
thorax 1.84312 -0.965784 0.991746
lowerneck -5.72536 -8.01387 -0.324267
upperneck -1.94261 -10.6873 6.04026
head 0.741127 -5.2868 1.69183
lclavicle -2.48481e-17 1.13307e-14 0
lhumerus -47.0765 -33.6464 108.26
lradius 57.9157 -0 0
lwrist 18.4094 0 0
lhand 4.05695 11.6403 0.103147
lfingers 7.12502 -0 0
lthumb 29.4552 39.1819 0.0534058
rclavicle -2.48481e-17 1.13307e-14 0
rhumerus -24.6335 17.5765 -75.2163
rradius 82.5265 -0 0
rwrist 2.75328 0 0
rhand 6.4911 -14.1224 3.27981
rfingers 7.12502 -0 0
rthumb 31.6112 -38.8372 3.84603
344
root 7.89352 16.1333 -19.884 9.61561 18.3278 2.52816
lfemur -12.7891 18.7149 -8.69007
ltibia 49.6183 -0 0
lfoot 2.29261 15.5205 -0.104745
ltoes -17.7743 0 0
rfemur -43.7486 -13.2666 12.7259
rtibia 52.9734 -0 0
rfoot -1.65922 -13.7722 -0.924367
rtoes 9.4975 -0 0
lowerback 0.521413 -1.30929 -1.40046
upperback 1.95558 -1.73279 0.281979
thorax 1.773 -0.893081 1.02538
lowerneck -5.8466 -7.76703 -0.293419
upperneck -1.74419 -10.3701 5.90488
head 0.806304 -5.12399 1.64864
lclavicle -2.48481e-17 1.13307e-14 0
lhumerus -46.8729 -32.9626 107.887
lradius 57.8772 -0 0
lwrist 18.2422 0 0
lhand 3.41937 11.4343 0.112326
lfingers 7.12502 -0 0
lthumb 28.8453 39.0703 0.0581575
rclavicle -2.48481e-17 1.13307e-14 0
rhumerus -25.7551 16.9286 -76.4372
rradius 82.0807 -0 0
rwrist 2.74669 0 0
rhand 3.76869 -15.6715 3.57865
rfingers 7.12502 -0 0
rthumb 28.9976 -40.7314 4.19703
345
root 7.82356 16.1558 -19.7277 9.37245 16.8141 2.07484
lfemur -13.0715 18.579 -8.16199
ltibia 51.1426 -0 0
lfoot 2.36902 13.9104 -0.111203
ltoes -15.4737 0 0
rfemur -43.0759 -13.3891 13.883
rtibia 52.4843 -0 0
rfoot -2.66692 -12.6954 -0.981288
rtoes 9.4736 -0 0
lowerback 0.643496 -1.19924 -1.26877
upperback 1.95823 -1.58959 0.383911
thorax 1.70292 -0.820338 1.05892
lowerneck -5.96763 -7.52013 -0.263117
upperneck -1.54672 -10.0525 5.77075
head 0.871341 -4.96113 1.60566
lclavicle -2.48481e-17 1.13307e-14 0
lhumerus -46.6761 -32.2777 107.519
lradius 57.8387 -0 0
lwrist 18.075 0 0
lhand 2.78175 11.2281 0.119211
lfingers 7.12502 -0 0
lthumb 28.2354 38.9587 0.0617218
rclavicle -2.48481e-17 1.13307e-14 0
rhumerus -26.8583 16.2582 -77.6404
rradius 81.6349 -0 0
rwrist 2.7401 0 0
rhand 1.03837 -17.2335 3.8036
rfingers 7.12502 -0 0
rthumb 26.3727 -42.6404 4.46131
346
root 7.7536 16.1784 -19.5714 9.14356 15.2986 1.63161
lfemur -13.3551 18.4456 -7.63362
ltibia 52.6669 -0 0
lfoot 2.44559 12.3003 -0.11551
ltoes -13.1732 0 0
rfemur -42.4056 -13.5248 15.0391
rtibia 51.9953 -0 0
rfoot -3.67552 -11.6178 -1.01926
rtoes 9.44971 -0 0
lowerback 0.765827 -1.08948 -1.13686
upperback 1.96114 -1.44638 0.485843
thorax 1.63289 -0.747553 1.09238
lowerneck -6.08847 -7.27316 -0.233357
upperneck -1.3502 -9.73449 5.63787
head 0.93624 -4.79823 1.56287
lclavicle -2.48481e-17 1.13307e-14 0
lhumerus -46.4859 -31.5918 107.157
lradius 57.8003 -0 0
lwrist 17.9078 0 0
lhand 2.14412 11.0219 0.123802
lfingers 7.12502 -0 0
lthumb 27.6255 38.8471 0.0640982
rclavicle -2.48481e-17 1.13307e-14 0
rhumerus -27.9428 15.5659 -78.826
rradius 81.189 -0 0
rwrist 2.73351 0 0
rhand -1.69767 -18.8049 3.95396
rfingers 7.12502 -0 0
rthumb 23.7397 -44.5601 4.638
347
root 7.68365 16.201 -19.4151 8.92832 13.7815 1.19766
lfemur -13.6398 18.3147 -7.10498
ltibia 54.1912 -0 0
lfoot 2.52224 10.6902 -0.117665
ltoes -10.8727 0 0
rfemur -41.7378 -13.6737 16.1942
rtibia 51.5063 -0 0
rfoot -4.68467 -10.5396 -1.03825
rtoes 9.42582 -0 0
lowerback 0.888406 -0.979992 -1.00471
upperback 1.9643 -1.30318 0.587776
thorax 1.56291 -0.674727 1.12574
lowerneck -6.20911 -7.02614 -0.204138
upperneck -1.15461 -9.416 5.50621
head 1.001 -4.63527 1.52027
lclavicle -2.48481e-17 1.13307e-14 0
lhumerus -46.3022 -30.9049 106.801
lradius 57.7618 -0 0
lwrist 17.7406 0 0
lhand 1.50647 10.8156 0.126097
lfingers 7.12502 -0 0
lthumb 27.0156 38.7355 0.0652865
rclavicle -2.48481e-17 1.13307e-14 0
rhumerus -29.0088 14.8523 -79.9938
rradius 80.7432 -0 0
rwrist 2.72692 0 0
rhand -4.4372 -20.3819 4.02926
rfingers 7.12502 -0 0
rthumb 21.1016 -46.4863 4.72649
348
root 7.61369 16.2236 -19.2589 8.72615 12.2628 0.772189
lfemur -13.9255 18.1863 -6.57605
ltibia 55.7155 -0 0
lfoot 2.59893 9.08015 -0.117665
ltoes -8.57213 0 0
rfemur -41.0728 -13.8356 17.3482
rtibia 51.0173 -0 0
rfoot -5.69401 -9.46132 -1.03825
rtoes 9.40192 -0 0
lowerback 1.01123 -0.870791 -0.872336
upperback 1.96771 -1.15999 0.689712
thorax 1.49296 -0.601861 1.15902
lowerneck -6.32956 -6.77905 -0.175458
upperneck -0.959946 -9.09707 5.37578
head 1.06563 -4.47227 1.47787
lclavicle -2.48481e-17 1.13307e-14 0
lhumerus -46.1247 -30.217 106.449
lradius 57.7234 -0 0
lwrist 17.5734 0 0
lhand 0.868825 10.6094 0.126097
lfingers 7.12502 -0 0
lthumb 26.4057 38.6239 0.0652865
rclavicle -2.48481e-17 1.13307e-14 0
rhumerus -30.056 14.1181 -81.144
rradius 80.2973 -0 0
rwrist 2.72032 0 0
rhand -7.1779 -21.9607 4.02926
rfingers 7.12502 -0 0
rthumb 18.4619 -48.4147 4.72649
349
root 7.54374 16.2462 -19.1026 8.53655 10.7428 0.354466
lfemur -14.2122 18.0605 -6.04683
ltibia 57.2398 -0 0
lfoot 2.67558 7.47006 -0.11551
ltoes -6.2716 0 0
rfemur -40.4108 -14.0104 18.501
rtibia 50.5283 -0 0
rfoot -6.70316 -8.38318 -1.01926
rtoes 9.37803 -0 0
lowerback 1.13431 -0.761873 -0.739731
upperback 1.97139 -1.01681 0.791651
thorax 1.42306 -0.528954 1.19221
lowerneck -6.44983 -6.5319 -0.147316
upperneck -0.766183 -8.7777 5.24655
head 1.13012 -4.30922 1.43567
lclavicle -2.48481e-17 1.13307e-14 0
lhumerus -45.9533 -29.5282 106.102
lradius 57.6849 -0 0
lwrist 17.4062 0 0
lhand 0.231179 10.4031 0.123802
lfingers 7.12502 -0 0
lthumb 25.7958 38.5123 0.0640982
rclavicle -2.48481e-17 1.13307e-14 0
rhumerus -31.0845 13.3638 -82.2765
rradius 79.8515 -0 0
rwrist 2.71373 0 0
rhand -9.91743 -23.5377 3.95396
rfingers 7.12502 -0 0
rthumb 15.8239 -50.3409 4.638
350
root 7.47378 16.2688 -18.9463 8.35907 9.22143 -0.0562134
lfemur -14.4999 17.9371 -5.51734
ltibia 58.7641 -0 0
lfoot 2.75215 5.85997 -0.111203
ltoes -3.97107 0 0
rfemur -39.752 -14.1982 19.6526
rtibia 50.0393 -0 0
rfoot -7.71176 -7.30555 -0.981288
rtoes 9.35414 -0 0
lowerback 1.25763 -0.653241 -0.606895
upperback 1.97531 -0.873628 0.893595
thorax 1.35321 -0.456007 1.2253
lowerneck -6.56991 -6.28469 -0.119709
upperneck -0.573312 -8.45791 5.11853
head 1.19447 -4.14612 1.39365
lclavicle -2.48481e-17 1.13307e-14 0
lhumerus -45.7878 -28.8385 105.76
lradius 57.6465 -0 0
lwrist 17.239 0 0
lhand -0.406454 10.1969 0.119211
lfingers 7.12502 -0 0
lthumb 25.1859 38.4007 0.0617218
rclavicle -2.48481e-17 1.13307e-14 0
rhumerus -32.0944 12.5901 -83.3915
rradius 79.4056 -0 0
rwrist 2.70714 0 0
rhand -12.6535 -25.1091 3.8036
rfingers 7.12502 -0 0
rthumb 13.1908 -52.2606 4.46131
351
root 7.40382 16.2913 -18.79 8.19329 7.69888 -0.460516
lfemur -14.7886 17.8163 -4.98756
ltibia 60.2884 -0 0
lfoot 2.82856 4.24989 -0.104745
ltoes -1.67053 0 0
rfemur -39.0968 -14.3987 20.8028
rtibia 49.5502 -0 0
rfoot -8.71946 -6.22877 -0.924367
rtoes 9.33024 -0 0
lowerback 1.38121 -0.544895 -0.473828
upperback 1.97949 -0.730456 0.995545
thorax 1.28339 -0.383019 1.25831
lowerneck -6.68982 -6.03743 -0.0926363
upperneck -0.38132 -8.13769 4.9917
head 1.2587 -3.98297 1.35183
lclavicle -2.48481e-17 1.13307e-14 0
lhumerus -45.628 -28.148 105.423
lradius 57.608 -0 0
lwrist 17.0718 0 0
lhand -1.04407 9.99076 0.112326
lfingers 7.12502 -0 0
lthumb 24.576 38.2891 0.0581575
rclavicle -2.48481e-17 1.13307e-14 0
rhumerus -33.0858 11.7975 -84.4891
rradius 78.9598 -0 0
rwrist 2.70055 0 0
rhand -15.3838 -26.6711 3.57865
rfingers 7.12502 -0 0
rthumb 10.566 -54.1696 4.19703
352
root 7.33387 16.3139 -18.6337 8.03886 6.17522 -0.85908
lfemur -15.0783 17.698 -4.45751
ltibia 61.8127 -0 0
lfoot 2.90476 2.63982 -0.0961438
ltoes 0.63 -0 0
rfemur -38.4451 -14.612 21.9517
rtibia 49.0612 -0 0
rfoot -9.72589 -5.15317 -0.848532
rtoes 9.30635 -0 0
lowerback 1.50503 -0.436837 -0.340529
upperback 1.98392 -0.587292 1.0975
thorax 1.21362 -0.309992 1.29123
lowerneck -6.80956 -5.79011 -0.0660957
upperneck -0.190195 -7.81705 4.86606
head 1.32279 -3.81978 1.3102
lclavicle -2.48481e-17 1.13307e-14 0
lhumerus -45.4739 -27.4567 105.089
lradius 57.5695 -0 0
lwrist 16.9046 0 0
lhand -1.68165 9.7847 0.103147
lfingers 7.12502 -0 0
lthumb 23.9661 38.1775 0.0534058
rclavicle -2.48481e-17 1.13307e-14 0
rhumerus -34.0587 10.9866 -85.5695
rradius 78.514 -0 0
rwrist 2.69396 0 0
rhand -18.1062 -28.2203 3.27981
rfingers 7.12502 -0 0
rthumb 7.95233 -56.0638 3.84603
